# xmcd
#
# Track frame offsets:
#	150
#	12117
#	29842
#	46800
#	58858
#	75352
#	87218
#	101634
#	118239
#	137779
#	150608
#	166434
#	179022
#	192242
#
# Disc length: 2829 seconds
#
# Revision: 1
# Processed by: cddbd v1.5.2PL0 Copyright (c) Steve Scherf et al.
# Submitted via: EasyCDDAExtractor 5.1.0
#
DISCID=ba0b0b0e
DTITLE=Pekka Myllykoski&Jytäjemmarit - Purkitettu Kuumuus
DYEAR=2008
DGENRE=
TTITLE0=Jumalauta, vallataan vanha
TTITLE1=Jemmarin jytä
TTITLE2=Rukinpolkija
TTITLE3=Suolaa ja pippureita
TTITLE4=Juice
TTITLE5=Olisinpa orava
TTITLE6=Liekki
TTITLE7=Viinamäki
TTITLE8=Visiitti
TTITLE9=Teksasin muoviruusu
TTITLE10=Lämmitin,sinä huriseva puhallin
TTITLE11=Isoisälliset neuvot
TTITLE12=Toivelaulu
TTITLE13=Sorsanmetsästys
EXTD=
EXTT0=
EXTT1=
EXTT2=
EXTT3=
EXTT4=
EXTT5=
EXTT6=
EXTT7=
EXTT8=
EXTT9=
EXTT10=
EXTT11=
EXTT12=
EXTT13=
PLAYORDER=
